<?xml version="1.0" encoding="iso-8859-1"?>
<!-- Generator: Adobe Illustrator 19.0.0, SVG Export Plug-In . SVG Version: 6.00 Build 0)  -->
<svg version="1.1" id="Capa_1" xmlns="http://www.w3.org/2000/svg" xmlns:xlink="http://www.w3.org/1999/xlink" x="0px" y="0px"
	 viewBox="0 0 512 512" style="enable-background:new 0 0 512 512;" xml:space="preserve">
<polygon style="fill:#175B93;" points="393.9,421.056 469.055,485.474 512,485.474 512,216.211 469.055,216.211 393.9,280.629 
	373.686,350.842 "/>
<polygon style="fill:#0C2E4C;" points="393.9,187.732 253.473,187.732 233.457,352.084 253.473,512 393.9,512 393.9,273.992 
	383.892,258.992 393.9,243.992 "/>
<rect y="187.73" style="fill:#175B93;" width="253.47" height="324.27"/>
<path style="fill:#FFEFB1;" d="M108.156,442.528c-20.984,0-38.055-17.072-38.055-38.056s17.071-38.056,38.055-38.056
	s38.056,17.072,38.056,38.056S129.141,442.528,108.156,442.528z"/>
<path style="fill:#175B93;" d="M399.583,102.422L233.26,82.209l20.214,112.876c13.251,6.259,28.06,9.76,43.687,9.76
	C353.727,204.845,399.583,158.989,399.583,102.422z"/>
<path style="fill:#0C2E4C;" d="M399.583,102.422C399.583,45.856,353.727,0,297.161,0c-15.628,0-30.437,3.501-43.687,9.76
	L233.26,66.639l20.214,35.783H399.583z"/>
<path style="fill:#519AD9;" d="M0,102.422c0,56.566,45.856,102.422,102.422,102.422c45.45,0,83.978-29.606,97.369-70.583
	c8.787,26.887,28.396,48.879,53.682,60.823v-92.663l-114.62-20.212L0,102.422z"/>
<path style="fill:#175B93;" d="M253.473,9.76c-25.286,11.945-44.895,33.936-53.682,60.823C186.401,29.606,147.872,0,102.422,0
	C45.856,0,0,45.856,0,102.422h253.473V9.76z"/>
<g>
	<polygon style="fill:#FFDA2D;" points="393.9,243.992 253.473,243.992 243.465,258.992 253.473,273.992 393.9,273.992 	"/>
	<polygon style="fill:#FFDA2D;" points="345.586,338.575 345.586,308.575 253.473,308.575 243.465,323.575 253.473,338.575 	"/>
	<polygon style="fill:#FFDA2D;" points="345.586,402.993 345.586,372.993 253.473,372.993 243.465,387.993 253.473,402.993 	"/>
</g>
<g>
	<rect x="199.79" y="243.99" style="fill:#FFEFB1;" width="53.682" height="30"/>
	<rect x="232" y="308.57" style="fill:#FFEFB1;" width="21.472" height="30"/>
	<rect x="232" y="372.99" style="fill:#FFEFB1;" width="21.472" height="30"/>
</g>
<g>
</g>
<g>
</g>
<g>
</g>
<g>
</g>
<g>
</g>
<g>
</g>
<g>
</g>
<g>
</g>
<g>
</g>
<g>
</g>
<g>
</g>
<g>
</g>
<g>
</g>
<g>
</g>
<g>
</g>
</svg>
